<?xml version="1.0" standalone="no"?>
<!DOCTYPE svg PUBLIC "-//W3C//DTD SVG 20010904//EN"
 "http://www.w3.org/TR/2001/REC-SVG-20010904/DTD/svg10.dtd">
<svg version="1.0" xmlns="http://www.w3.org/2000/svg"
 width="1909.000000pt" height="283.000000pt" viewBox="0 0 1909.000000 283.000000"
 preserveAspectRatio="xMidYMid meet">
<metadata>
Created by potrace 1.16, written by Peter Selinger 2001-2019
</metadata>
<g transform="translate(0.000000,283.000000) scale(0.100000,-0.100000)"
fill="#000000" stroke="none">
<path d="M12054 2816 c-265 -60 -451 -233 -499 -461 -21 -102 -22 -1776 0
-1877 31 -151 140 -300 276 -381 114 -67 202 -89 380 -95 135 -4 167 -2 240
17 254 63 431 229 484 452 8 35 15 83 15 107 l0 42 -163 0 -163 0 -12 -59
c-24 -113 -110 -202 -230 -237 -39 -12 -83 -15 -156 -12 -87 3 -110 8 -167 34
-77 37 -133 89 -163 153 -21 46 -21 50 -21 911 l0 865 24 53 c55 122 181 192
345 192 208 0 353 -106 373 -271 l6 -49 163 0 164 0 0 48 c-1 129 -62 272
-161 377 -78 82 -163 135 -274 172 -70 23 -100 26 -240 29 -111 3 -179 -1
-221 -10z"/>
<path d="M653 2800 c-149 -39 -308 -141 -386 -248 -130 -176 -154 -433 -62
-653 70 -166 220 -336 550 -621 290 -250 401 -380 442 -517 45 -156 -38 -321
-203 -402 -57 -28 -78 -33 -168 -37 -88 -4 -113 -1 -169 17 -113 38 -185 121
-202 234 l-7 47 -164 0 -164 0 0 -32 c0 -61 30 -172 65 -247 27 -55 54 -93
113 -151 130 -130 270 -181 492 -180 193 0 339 41 478 134 169 112 256 268
269 476 7 125 -13 218 -72 337 -79 161 -178 268 -553 596 -273 240 -378 367
-419 506 -46 159 35 342 184 416 82 41 211 47 297 15 107 -41 169 -120 182
-235 l7 -55 168 0 168 0 -6 58 c-25 280 -195 486 -453 546 -94 22 -295 20
-387 -4z"/>
<path d="M1890 1410 l0 -1380 165 0 165 0 1 998 0 997 38 -156 c35 -149 53
-193 396 -997 l359 -842 143 0 143 0 0 1380 0 1380 -165 0 -165 0 -2 -977 -3
-977 -32 142 c-31 134 -51 185 -387 974 l-355 833 -150 3 -151 3 0 -1381z"/>
<path d="M3740 1410 l0 -1380 670 0 670 0 0 155 0 155 -505 0 -505 0 0 450 0
450 430 0 430 0 0 155 0 155 -430 0 -430 0 0 465 0 465 505 0 505 0 0 155 0
155 -670 0 -670 0 0 -1380z"/>
<path d="M5880 2783 c0 -4 -121 -620 -270 -1369 -148 -748 -270 -1366 -270
-1373 0 -8 49 -11 169 -11 l168 0 31 163 c17 89 37 192 43 229 l12 68 362 0
361 0 17 -87 c9 -49 28 -152 43 -230 l27 -143 170 0 c156 0 169 1 165 18 -2 9
-123 630 -269 1379 l-264 1363 -247 0 c-137 0 -248 -3 -248 -7z m265 -488 c13
-81 251 -1369 271 -1467 l6 -28 -297 0 -297 0 6 27 c40 190 277 1455 282 1506
4 37 8 66 10 65 1 -2 10 -48 19 -103z"/>
<path d="M7220 1410 l0 -1380 165 0 165 0 0 578 c0 474 2 582 14 597 13 18 15
16 38 -21 14 -21 179 -290 367 -596 l343 -558 214 0 c118 0 214 2 214 5 0 3
-214 338 -476 744 -262 407 -475 743 -474 748 1 4 191 284 423 622 232 338
426 621 430 628 7 11 -28 13 -186 13 l-195 0 -343 -524 c-189 -288 -349 -532
-356 -542 -9 -15 -12 100 -12 524 l-1 542 -165 0 -165 0 0 -1380z"/>
<path d="M9010 1410 l0 -1380 165 0 165 0 0 599 0 598 313 6 c346 6 374 10
507 75 105 51 223 169 274 272 59 122 68 187 64 475 -3 243 -4 252 -30 325
-65 177 -201 313 -379 378 l-74 27 -502 3 -503 3 0 -1381z m976 1041 c73 -34
129 -88 158 -150 18 -41 21 -69 24 -241 4 -214 -4 -274 -46 -354 -15 -26 -46
-65 -70 -86 -77 -68 -101 -73 -424 -78 l-288 -4 0 471 0 471 293 0 292 0 61
-29z"/>
<path d="M10820 1410 l0 -1380 165 0 165 0 0 1380 0 1380 -165 0 -165 0 0
-1380z"/>
<path d="M13320 1410 l0 -1380 165 0 165 0 0 578 c0 474 2 582 14 597 13 18
15 16 38 -21 14 -21 179 -290 367 -596 l343 -558 214 0 c118 0 214 2 214 5 0
3 -214 338 -476 744 -262 407 -475 743 -474 748 1 4 191 284 423 622 232 338
426 621 430 628 7 11 -28 13 -186 13 l-195 0 -343 -524 c-189 -288 -349 -532
-356 -542 -9 -15 -12 100 -12 524 l-1 542 -165 0 -165 0 0 -1380z"/>
<path d="M15820 1410 l0 -1380 165 0 165 0 0 599 0 598 313 6 c346 6 374 10
507 75 105 51 223 169 274 272 59 122 68 187 64 475 -3 243 -4 252 -30 325
-65 177 -201 313 -379 378 l-74 27 -502 3 -503 3 0 -1381z m976 1041 c73 -34
129 -88 158 -150 18 -41 21 -69 24 -241 4 -214 -4 -274 -46 -354 -15 -26 -46
-65 -70 -86 -77 -68 -101 -73 -424 -78 l-288 -4 0 471 0 471 293 0 292 0 61
-29z"/>
<path d="M17640 1410 l0 -1380 670 0 670 0 0 155 0 155 -505 0 -505 0 0 1225
0 1225 -165 0 -165 0 0 -1380z"/>
<path d="M15090 195 l0 -165 165 0 165 0 0 165 0 165 -165 0 -165 0 0 -165z"/>
</g>
</svg>
